<?xml version="1.0" standalone="no"?>
<!DOCTYPE svg PUBLIC "-//W3C//DTD SVG 20010904//EN"
 "http://www.w3.org/TR/2001/REC-SVG-20010904/DTD/svg10.dtd">
<svg version="1.0" xmlns="http://www.w3.org/2000/svg"
 width="300.000000pt" height="300.000000pt" viewBox="0 0 300.000000 300.000000"
 preserveAspectRatio="xMidYMid meet">
<metadata>
Created by potrace 1.14, written by Peter Selinger 2001-2017
</metadata>
<g transform="translate(0.000000,300.000000) scale(0.100000,-0.100000)"
fill="#000000" stroke="none">
<path d="M645 2658 c-33 -134 -60 -245 -60 -248 -15 -75 -29 -121 -38 -127 -7
-4 -69 -8 -139 -8 -71 0 -131 -5 -136 -10 -7 -8 -45 -151 -68 -260 -1 -5 -12
-48 -24 -95 -12 -47 -24 -94 -26 -105 -3 -11 -22 -90 -43 -175 -21 -85 -37
-156 -36 -158 1 -1 66 -3 143 -3 106 0 140 -3 137 -12 -6 -16 -125 -504 -131
-537 -3 -14 -14 -56 -25 -95 -10 -38 -19 -76 -19 -85 0 -13 53 -15 447 -13
420 2 448 3 455 20 6 14 144 572 173 700 5 21 10 21 127 22 67 0 125 -2 129
-5 4 -2 0 -30 -8 -62 -8 -31 -16 -64 -18 -72 -2 -8 -31 -125 -65 -260 -34
-135 -63 -252 -65 -260 -7 -33 -137 -560 -154 -627 l-19 -73 452 0 453 0 37
152 c21 84 72 288 113 453 41 165 76 305 77 310 1 6 26 108 55 228 l54 217
138 -2 c117 -3 140 -1 144 12 12 39 183 748 187 770 l3 25 -132 0 c-111 -1
-133 2 -133 14 0 13 134 568 144 596 4 11 -889 14 -900 3 -5 -6 -63 -226 -78
-298 -3 -14 -21 -90 -41 -170 l-36 -145 -129 0 c-80 0 -130 4 -130 10 0 6 10
46 21 90 11 44 22 90 25 102 2 13 20 85 39 160 18 76 39 159 44 184 6 25 13
53 17 62 6 16 -28 17 -448 17 l-454 0 -59 -242z"/>
</g>
</svg>
