<?xml version="1.0" encoding="UTF-8" standalone="no"?>
<!DOCTYPE svg PUBLIC "-//W3C//DTD SVG 1.1//EN" "http://www.w3.org/Graphics/SVG/1.1/DTD/svg11.dtd">
<svg width="100%" height="100%" viewBox="0 0 1200 400" version="1.1" xmlns="http://www.w3.org/2000/svg" xmlns:xlink="http://www.w3.org/1999/xlink" xml:space="preserve" xmlns:serif="http://www.serif.com/" style="fill-rule:evenodd;clip-rule:evenodd;stroke-miterlimit:2;">
    <g transform="matrix(1.36037,0,-0.32301,1.47589,250.798,-214.706)">
        <path d="M515.468,384.718C513.356,384.718 511.676,384.094 510.428,382.846C509.18,381.598 508.556,379.918 508.556,377.806C508.556,375.694 509.18,374.014 510.428,372.766C511.676,371.518 513.356,370.894 515.468,370.894C517.58,370.894 519.26,371.518 520.508,372.766C521.756,374.014 522.38,375.694 522.38,377.806C522.38,379.918 521.756,381.598 520.508,382.846C519.26,384.094 517.58,384.718 515.468,384.718Z" style="fill-rule:nonzero;"/>
        <path d="M559.244,384.718C550.732,384.718 544.108,382.43 539.372,377.854C534.636,373.278 532.268,366.926 532.268,358.798C532.268,350.606 534.636,344.238 539.372,339.694C544.108,335.15 550.732,332.878 559.244,332.878C562.06,332.878 564.716,333.15 567.212,333.694C569.708,334.238 572.14,335.15 574.508,336.43L572.684,344.782C570.508,343.63 568.364,342.798 566.252,342.286C564.14,341.774 562.028,341.518 559.916,341.518C554.476,341.518 550.268,343.022 547.292,346.03C544.316,349.038 542.828,353.294 542.828,358.798C542.828,364.238 544.316,368.478 547.292,371.518C550.268,374.558 554.476,376.078 559.916,376.078C562.028,376.078 564.14,375.822 566.252,375.31C568.364,374.798 570.508,373.966 572.684,372.814L574.508,381.166C572.14,382.382 569.708,383.278 567.212,383.854C564.716,384.43 562.06,384.718 559.244,384.718Z" style="fill-rule:nonzero;"/>
        <path d="M608.204,384.718C603.084,384.718 598.652,383.662 594.908,381.55C591.164,379.438 588.284,376.43 586.268,372.526C584.252,368.622 583.244,364.046 583.244,358.798C583.244,353.486 584.252,348.894 586.268,345.022C588.284,341.15 591.164,338.158 594.908,336.046C598.652,333.934 603.084,332.878 608.204,332.878C613.324,332.878 617.74,333.934 621.452,336.046C625.164,338.158 628.044,341.15 630.092,345.022C632.14,348.894 633.164,353.486 633.164,358.798C633.164,364.046 632.14,368.622 630.092,372.526C628.044,376.43 625.164,379.438 621.452,381.55C617.74,383.662 613.324,384.718 608.204,384.718ZM608.204,376.078C612.812,376.078 616.396,374.558 618.956,371.518C621.516,368.478 622.796,364.238 622.796,358.798C622.796,353.294 621.516,349.038 618.956,346.03C616.396,343.022 612.812,341.518 608.204,341.518C603.596,341.518 600.012,343.022 597.452,346.03C594.892,349.038 593.612,353.294 593.612,358.798C593.612,364.238 594.892,368.478 597.452,371.518C600.012,374.558 603.596,376.078 608.204,376.078Z" style="fill-rule:nonzero;"/>
        <path d="M644.3,383.758L644.3,333.838L653.996,333.838L654.092,340.558L654.284,340.558C657.74,335.438 662.732,332.878 669.26,332.878C672.588,332.878 675.452,333.55 677.852,334.894C680.252,336.238 681.964,338.126 682.988,340.558L683.18,340.558C686.508,335.438 691.788,332.878 699.02,332.878C704.524,332.878 708.46,334.43 710.828,337.534C713.196,340.638 714.38,345.806 714.38,353.038L714.38,383.758L704.204,383.758L704.204,354.478C704.204,349.806 703.564,346.478 702.284,344.494C701.004,342.51 698.86,341.518 695.852,341.518C692.204,341.518 689.388,342.846 687.404,345.502C685.42,348.158 684.428,351.95 684.428,356.878L684.428,383.758L674.252,383.758L674.252,352.078C674.252,348.686 673.516,346.078 672.044,344.254C670.572,342.43 668.524,341.518 665.9,341.518C662.572,341.518 659.836,342.942 657.692,345.79C655.548,348.638 654.476,352.334 654.476,356.878L654.476,383.758L644.3,383.758Z" style="fill-rule:nonzero;"/>
    </g>
    <g transform="matrix(2.36655,0,-0.726367,2.39485,-7.68213,-1609.06)">
        <path d="M260.379,764.784C266.545,764.656 271.665,764.048 275.737,762.96C279.809,761.872 283.053,760.128 285.469,757.728C287.885,755.328 289.599,752.112 290.611,748.08C291.623,744.048 292.129,739.056 292.129,733.104L292.129,722.16L266.867,722.16L266.867,744.912L257.411,744.912L257.411,722.16L247.058,722.16L247.058,710.64L257.411,710.64L257.411,695.28L266.867,695.28L266.867,710.64L292.129,710.64L292.129,695.28L301.585,695.28L301.585,710.64L311.525,710.64L311.525,722.16L301.585,722.16L301.585,733.104C301.585,743.28 300.274,751.488 297.651,757.728C295.028,763.968 290.818,768.56 285.02,771.504C279.222,774.448 271.561,776.048 262.036,776.304L260.379,764.784Z" style="fill:white;fill-opacity:0;fill-rule:nonzero;stroke:black;stroke-width:6.64px;"/>
        <rect x="319.807" y="730.512" width="57.012" height="12.768" style="fill:white;fill-opacity:0;fill-rule:nonzero;stroke:black;stroke-width:6.64px;"/>
        <path d="M394.213,766.32C398.032,765.936 401.242,765.28 403.841,764.352C406.441,763.424 408.558,762.064 410.191,760.272C411.825,758.48 413.067,756.112 413.919,753.168C414.77,750.224 415.334,746.544 415.61,742.128L386.759,742.128L386.759,730.608L415.817,730.608L415.817,713.616C412.044,714.064 408.19,714.432 404.256,714.72C400.321,715.008 396.468,715.152 392.694,715.152L392.694,703.632C396.652,703.632 400.874,703.424 405.36,703.008C409.846,702.592 414.31,702.016 418.75,701.28C423.191,700.544 427.355,699.696 431.243,698.736C435.131,697.776 438.433,696.752 441.148,695.664L443.702,706.896C441.309,707.92 438.536,708.864 435.384,709.728C432.232,710.592 428.839,711.376 425.204,712.08L425.204,730.608L447.912,730.608L447.912,742.128L424.997,742.128C424.537,750.256 423.283,756.832 421.235,761.856C419.187,766.88 416.139,770.656 412.09,773.184C408.04,775.712 402.795,777.296 396.353,777.936L394.213,766.32Z" style="fill:white;fill-opacity:0;fill-rule:nonzero;stroke:black;stroke-width:6.64px;"/>
        <path d="M467.445,764.784C473.611,764.656 478.73,764.048 482.803,762.96C486.875,761.872 490.119,760.128 492.535,757.728C494.95,755.328 496.664,752.112 497.677,748.08C498.689,744.048 499.195,739.056 499.195,733.104L499.195,722.16L473.933,722.16L473.933,744.912L464.477,744.912L464.477,722.16L454.124,722.16L454.124,710.64L464.477,710.64L464.477,695.28L473.933,695.28L473.933,710.64L499.195,710.64L499.195,695.28L508.651,695.28L508.651,710.64L518.59,710.64L518.59,722.16L508.651,722.16L508.651,733.104C508.651,743.28 507.34,751.488 504.717,757.728C502.094,763.968 497.884,768.56 492.086,771.504C486.288,774.448 478.627,776.048 469.102,776.304L467.445,764.784Z" style="fill:white;fill-opacity:0;fill-rule:nonzero;stroke:black;stroke-width:6.64px;"/>
        <path d="M525.216,732.72C529.91,731.76 534.788,730.096 539.849,727.728C544.911,725.36 549.903,722.448 554.827,718.992C559.75,715.536 564.34,711.712 568.597,707.52C572.853,703.328 576.5,698.992 579.537,694.512L585.611,703.344C582.804,707.44 579.502,711.44 575.706,715.344C571.91,719.248 567.849,722.864 563.524,726.192L563.524,778.512L553.653,778.512L553.653,733.104C549.144,735.92 544.589,738.32 539.987,740.304C535.386,742.288 530.945,743.728 526.666,744.624L525.216,732.72Z" style="fill:white;fill-opacity:0;fill-rule:nonzero;stroke:black;stroke-width:6.64px;"/>
        <path d="M641.449,776.976L641.449,770.256L596.792,770.256L596.792,758.736L641.449,758.736L641.449,712.272L596.792,712.272L596.792,700.752L651.112,700.752L651.112,776.976L641.449,776.976Z" style="fill:white;fill-opacity:0;fill-rule:nonzero;stroke:black;stroke-width:6.64px;"/>
        <rect x="664.917" y="730.512" width="57.012" height="12.768" style="fill:white;fill-opacity:0;fill-rule:nonzero;stroke:black;stroke-width:6.64px;"/>
    </g>
    <g transform="matrix(1.87246,0,-0.494273,0.97793,79.9536,-530.322)">
        <rect x="211.063" y="851.902" width="391.493" height="43.083"/>
    </g>
</svg>
