<?xml version="1.0" encoding="UTF-8" standalone="no"?>
<!DOCTYPE svg PUBLIC "-//W3C//DTD SVG 1.1//EN" "http://www.w3.org/Graphics/SVG/1.1/DTD/svg11.dtd">
<svg width="100%" height="100%" viewBox="0 0 2000 500" version="1.1" xmlns="http://www.w3.org/2000/svg" xmlns:xlink="http://www.w3.org/1999/xlink" xml:space="preserve" xmlns:serif="http://www.serif.com/" style="fill-rule:evenodd;clip-rule:evenodd;stroke-linejoin:round;stroke-miterlimit:2;">
    <g transform="matrix(5.68112,0,0,6.97837,-2021.96,-4246.33)">
        <path d="M393.332,656.331L377.332,656.331L383.282,634.381L378.732,634.381L375.532,646.331L359.532,646.331L362.732,634.381L357.682,634.381L361.182,621.331L366.182,621.331L368.882,611.231L384.882,611.231L382.182,621.331L386.832,621.331L389.532,611.331L405.532,611.331L402.832,621.331L407.732,621.331L404.232,634.381L399.282,634.381L393.332,656.331Z" style="fill-rule:nonzero;"/>
        <path d="M393.332,656.331L377.332,656.331L383.282,634.381L378.732,634.381L375.532,646.331L359.532,646.331L362.732,634.381L357.682,634.381L361.182,621.331L366.182,621.331L368.882,611.231L384.882,611.231L382.182,621.331L386.832,621.331L389.532,611.331L405.532,611.331L402.832,621.331L407.732,621.331L404.232,634.381L399.282,634.381L393.332,656.331ZM393.118,656.114L399.068,634.164L404.018,634.164L407.401,621.548L402.501,621.548C402.501,621.548 405.201,611.548 405.201,611.548L389.747,611.548L387.047,621.548L381.852,621.548L384.552,611.448C384.552,611.448 369.097,611.448 369.097,611.448L366.397,621.548L361.397,621.548L358.013,634.164L363.063,634.164C363.063,634.164 359.863,646.114 359.863,646.114C359.863,646.114 375.318,646.114 375.318,646.114L378.518,634.164L383.614,634.164L377.664,656.114L393.118,656.114Z"/>
        <path d="M404.432,640.981L407.932,627.931L454.482,627.931L450.982,640.981L404.432,640.981Z" style="fill-rule:nonzero;"/>
        <path d="M404.432,640.981L407.932,627.931L454.482,627.931L450.982,640.981L404.432,640.981ZM404.763,640.764L450.768,640.764L454.151,628.148L408.147,628.148L404.763,640.764Z"/>
        <path d="M504.482,627.931L500.982,640.981L486.782,640.981L482.682,656.431L466.682,656.431L470.782,640.981L454.432,640.981L457.932,627.931L474.232,627.931L475.182,624.381L458.832,624.381L462.332,611.331L508.882,611.331L505.382,624.381L491.182,624.381L490.232,627.931L504.482,627.931Z" style="fill-rule:nonzero;"/>
        <path d="M504.482,627.931L500.982,640.981L486.782,640.981L482.682,656.431L466.682,656.431L470.782,640.981L454.432,640.981L457.932,627.931L474.232,627.931L475.182,624.381L458.832,624.381L462.332,611.331L508.882,611.331L505.382,624.381L491.182,624.381L490.232,627.931L504.482,627.931ZM504.151,628.148L489.902,628.148L490.968,624.164L505.168,624.164L508.551,611.548L462.547,611.548L459.163,624.164L475.513,624.164L474.447,628.148L458.147,628.148L454.763,640.764L471.113,640.764L467.013,656.214C467.013,656.214 482.467,656.214 482.467,656.214L486.567,640.764L500.768,640.764L504.151,628.148Z"/>
        <path d="M543.332,656.331L527.332,656.331L533.282,634.381L528.732,634.381L525.532,646.331L509.532,646.331L512.732,634.381L507.682,634.381L511.182,621.331L516.182,621.331L518.882,611.231L534.882,611.231L532.182,621.331L536.832,621.331L539.532,611.331L555.532,611.331L552.832,621.331L557.732,621.331L554.232,634.381L549.282,634.381L543.332,656.331Z" style="fill-rule:nonzero;"/>
        <path d="M543.332,656.331L527.332,656.331L533.282,634.381L528.732,634.381L525.532,646.331L509.532,646.331L512.732,634.381L507.682,634.381L511.182,621.331L516.182,621.331L518.882,611.231L534.882,611.231L532.182,621.331L536.832,621.331L539.532,611.331L555.532,611.331L552.832,621.331L557.732,621.331L554.232,634.381L549.282,634.381L543.332,656.331ZM543.118,656.114L549.068,634.164L554.018,634.164L557.401,621.548L552.501,621.548C552.501,621.548 555.201,611.548 555.201,611.548L539.747,611.548L537.047,621.548L531.852,621.548L534.552,611.448C534.552,611.448 519.097,611.448 519.097,611.448L516.397,621.548L511.397,621.548L508.013,634.164L513.063,634.164C513.063,634.164 509.863,646.114 509.863,646.114C509.863,646.114 525.318,646.114 525.318,646.114L528.518,634.164L533.614,634.164L527.664,656.114L543.118,656.114Z"/>
        <path d="M584.582,656.131L568.582,656.131L575.732,630.781L559.232,634.381L562.732,621.331L608.882,611.331L605.382,624.381L592.782,627.131L584.582,656.131Z" style="fill-rule:nonzero;"/>
        <path d="M584.582,656.131L568.582,656.131L575.732,630.781L559.232,634.381L562.732,621.331L608.882,611.331L605.382,624.381L592.782,627.131L584.582,656.131ZM584.37,655.914L592.559,626.956L605.157,624.206C605.157,624.206 608.529,611.632 608.529,611.632L562.958,621.507C562.958,621.507 559.586,634.08 559.586,634.08L576.091,630.478L568.917,655.914L584.37,655.914Z"/>
        <path d="M634.382,643.181L639.382,624.381L608.832,624.381L612.332,611.331L658.882,611.331L646.932,656.231L600.382,656.231L603.882,643.181L634.382,643.181Z" style="fill-rule:nonzero;"/>
        <path d="M634.382,643.181L639.382,624.381L608.832,624.381L612.332,611.331L658.882,611.331L646.932,656.231L600.382,656.231L603.882,643.181L634.382,643.181ZM604.097,643.398L600.713,656.014L646.717,656.014L658.552,611.548L612.547,611.548C612.547,611.548 609.163,624.164 609.163,624.164L639.713,624.164L634.597,643.398L604.097,643.398Z"/>
        <path d="M654.432,640.981L657.932,627.931L704.482,627.931L700.982,640.981L654.432,640.981Z" style="fill-rule:nonzero;"/>
        <path d="M654.432,640.981L657.932,627.931L704.482,627.931L700.982,640.981L654.432,640.981ZM654.763,640.764L700.768,640.764L704.151,628.148L658.147,628.148L654.763,640.764Z"/>
    </g>
    <g transform="matrix(0.811061,0,0,0.742334,783.082,-161.582)">
        <g transform="matrix(1,0,0,1,-27.7238,0)">
            <path d="M960.652,762.661L943.136,828.908L1049.1,828.908L1036.96,874.17L875.502,874.17L883.826,843.475L905.157,762.661L904.984,762.661L917.123,717.398L1078.58,717.398L1066.44,762.661L960.652,762.661Z" style="fill-rule:nonzero;"/>
            <path d="M960.652,762.661L943.136,828.908L1049.1,828.908L1036.96,874.17L875.502,874.17L883.826,843.475L905.157,762.661L904.984,762.661L917.123,717.398L1078.58,717.398L1066.44,762.661L960.652,762.661ZM905.273,764.056C905.204,764.204 905.157,764.292 905.157,764.292L906.592,763.113L885.26,843.933C885.26,843.933 877.502,872.539 877.502,872.539L1035.84,872.539C1035.84,872.539 1047.1,830.539 1047.1,830.539L941.151,830.539L959.529,761.029L1065.32,761.029C1065.32,761.029 1076.58,719.03 1076.58,719.03L918.242,719.03L906.417,763.12L905.273,764.056Z"/>
        </g>
        <g transform="matrix(1,0,0,1,-12.7257,0)">
            <path d="M1252,717.398L1210.55,873.477L1048.75,873.477L1090.54,717.398L1252,717.398ZM1167.02,827.867L1184.37,762.661L1133.73,762.661L1116.38,827.867L1167.02,827.867Z" style="fill-rule:nonzero;"/>
            <path d="M1252,717.398L1210.55,873.477L1048.75,873.477L1090.54,717.398L1252,717.398ZM1250.01,719.03L1091.66,719.03L1050.74,871.845L1209.43,871.845L1250.01,719.03ZM1114.39,829.499L1132.61,761.029L1186.35,761.029L1168.14,829.499L1114.39,829.499ZM1167.02,827.867L1184.37,762.661L1133.73,762.661L1116.38,827.867L1167.02,827.867Z"/>
        </g>
        <g transform="matrix(0.397982,0,0,0.397982,349.814,527.252)">
            <path d="M1252,717.398L1210.55,873.477L1048.75,873.477L1090.54,717.398L1252,717.398Z" style="fill-rule:nonzero;"/>
            <path d="M1252,717.398L1210.55,873.477L1048.75,873.477L1090.54,717.398L1252,717.398ZM1247,721.498L1093.36,721.498L1053.76,869.377L1207.73,869.377L1247,721.498Z"/>
        </g>
        <path d="M1429.06,717.745L1387.61,873.477L1332.12,873.477L1355.18,786.593L1318.42,821.104L1300.9,787.46L1278.01,873.477L1222.52,873.477L1263.96,717.745L1264.66,717.745L1264.49,717.398L1319.98,717.398L1336.28,752.082L1373.39,717.398L1428.89,717.398L1428.54,717.745L1429.06,717.745Z" style="fill-rule:nonzero;"/>
        <path d="M1429.06,717.745L1387.61,873.477L1332.12,873.477L1355.18,786.593L1318.42,821.104L1300.9,787.46L1278.01,873.477L1222.52,873.477L1263.96,717.745L1264.66,717.745L1264.49,717.398L1319.98,717.398L1336.28,752.082L1373.39,717.398L1428.89,717.398L1428.54,717.745L1429.06,717.745ZM1427.16,719.03L1373.94,719.03L1335.82,754.664L1319.07,719.03L1265.28,719.03C1265.24,719.06 1265.2,719.088 1265.16,719.114C1261.79,731.78 1224.51,871.845 1224.51,871.845C1224.51,871.845 1276.89,871.845 1276.89,871.845L1300.46,783.299C1300.46,783.299 1318.82,818.575 1318.82,818.575L1358.02,781.784C1358.02,781.784 1334.11,871.845 1334.11,871.845L1386.49,871.845L1427.16,719.03Z"/>
    </g>
    <g transform="matrix(0.322788,0,0,0.295436,-302.466,229.815)">
        <path d="M5173.7,717.398L5132.25,873.477L1048.75,873.477L1090.54,717.398L5173.7,717.398Z" style="fill-rule:nonzero;"/>
        <path d="M5173.7,717.398L5132.25,873.477L1048.75,873.477L1090.54,717.398L5173.7,717.398ZM5168.7,721.498L1093.36,721.498L1053.76,869.377L5129.43,869.377L5168.7,721.498Z"/>
    </g>
</svg>
